<svg height="480pt" viewBox="0 0 480 480" width="480pt" xmlns="http://www.w3.org/2000/svg">
    <path d="m217.472656 416h-9.472656v16h9.472656c2.417969 6.777344 7.75 12.109375 14.527344 14.527344v9.472656h16v-9.472656c6.777344-2.417969 12.109375-7.75 14.527344-14.527344h9.472656v-16h-9.472656c-2.417969-6.777344-7.75-12.109375-14.527344-14.527344v-9.472656h-16v9.472656c-6.777344 2.417969-12.109375 7.75-14.527344 14.527344zm22.527344 0c4.417969 0 8 3.582031 8 8s-3.582031 8-8 8-8-3.582031-8-8 3.582031-8 8-8zm0 0" />
    <path d="m78.527344 432h9.472656v-16h-9.472656c-2.417969-6.777344-7.75-12.109375-14.527344-14.527344v-9.472656h-16v9.472656c-6.777344 2.417969-12.109375 7.75-14.527344 14.527344h-9.472656v16h9.472656c2.417969 6.777344 7.75 12.109375 14.527344 14.527344v9.472656h16v-9.472656c6.777344-2.417969 12.109375-7.75 14.527344-14.527344zm-22.527344 0c-4.417969 0-8-3.582031-8-8s3.582031-8 8-8 8 3.582031 8 8-3.582031 8-8 8zm0 0" />
    <path d="m424 368h-64v-40h-16v-112h8v16h38.246094l9.515625-38.054688.160156-44.96875c5.175781-5.761718 8.050781-13.230468 8.078125-20.976562 0-17.671875-14.328125-32-32-32-7.714844.023438-15.152344 2.871094-20.910156 8h-83.089844v-104h-64v104h-83.105469c-5.753906-5.128906-13.1875-7.976562-20.894531-8-17.671875 0-32 14.328125-32 32 .023438 7.714844 2.871094 15.152344 8 20.910156v43.089844l9.753906 40h38.246094v-16h8v112h-16v40h-64c-30.929688 0-56 25.070312-56 56s25.070312 56 56 56h360l2.878906-.257812c1.6875.152343 3.394532.257812 5.121094.257812 30.929688 0 56-25.070312 56-56s-25.070312-56-56-56zm-144 56c0 22.089844-17.910156 40-40 40s-40-17.910156-40-40 17.910156-40 40-40c22.082031.027344 39.972656 17.917969 40 40zm104-232.984375-6.246094 24.984375h-9.753906v-57.015625c.464844.121094.9375.167969 1.40625.261719.472656.097656.945312.203125 1.425781.28125 1.585938.265625 3.191407.414062 4.800781.441406h.359376.359374c1.609376-.027344 3.214844-.171875 4.800782-.441406.496094-.078125.976562-.175782 1.464844-.28125.488281-.101563.925781-.140625 1.382812-.261719zm8-63.015625c.027344 4.5625-1.933594 8.910156-5.367188 11.910156-.632812.554688-1.308593 1.050782-2.023437 1.488282-.113281.074218-.210937.175781-.328125.242187l-.089844.039063c-2.488281 1.441406-5.316406 2.195312-8.191406 2.183593-.519531 0-1.023438-.078125-1.535156-.128906-.511719-.046875-.90625 0-1.34375-.117187-1.667969-.300782-3.273438-.867188-4.761719-1.671876-.214844-.113281-.4375-.183593-.648437-.304687-.832032-.5-1.617188-1.078125-2.34375-1.730469l-.121094-.109375c-.371094-.324219-.722656-.675781-1.046875-1.046875l-.109375-.121094c-5.484375-6.070312-5.449219-15.316406.078125-21.34375l.046875-.058593c2.992187-3.359375 7.285156-5.269531 11.785156-5.230469 8.835938 0 16 7.164062 16 16zm-46.984375-8c-.121094.472656-.175781.960938-.273437 1.433594-.09375.46875-.191407.894531-.261719 1.359375-.636719 3.4375-.636719 6.960937 0 10.398437.070312.464844.167969.90625.261719 1.359375.097656.457031.152343.960938.273437 1.433594h-74.03125c.085937-.335937.121094-.679687.191406-1.015625.070313-.335938.144531-.554688.199219-.839844.058594-.289062.097656-.625.144531-.9375.300781-1.714844.460938-3.449218.480469-5.191406v-8zm-89.328125 11.046875c-.105469.476563-.238281.949219-.398438 1.410156-.125.484375-.269531.960938-.441406 1.429688-.261718.613281-.558594 1.210937-.894531 1.785156-.144531.265625-.273437.550781-.441406.800781-.40625.625-.855469 1.222656-1.34375 1.785156-.167969.207032-.320313.421876-.503907.613282-.457031.480468-.949218.929687-1.464843 1.34375-.375.3125-.726563.65625-1.128907.929687-.328124.214844-.671874.417969-1.023437.597657-.566406.355468-1.152344.671874-1.757813.953124-.378906.160157-.800781.25-1.167968.375-.605469.234376-1.226563.429688-1.855469.585938-1.074219.222656-2.167969.339844-3.265625.34375-1.101562 0-2.195312-.117188-3.273438-.34375-.488281-.125-.972656-.273438-1.445312-.449219-.542969-.148437-1.078125-.324219-1.601562-.527343-.464844-.222657-.917969-.46875-1.359376-.734376-.507812-.257812-1-.546874-1.472656-.867187-.328125-.222656-.609375-.503906-.910156-.75-.589844-.46875-1.144531-.976563-1.65625-1.527344-.21875-.234375-.402344-.488281-.601562-.730469-.417969-.492187-.808594-1.011718-1.167969-1.550781-.230469-.375-.421875-.800781-.632813-1.175781-.261718-.460938-.496094-.933594-.703125-1.421875-.203125-.542969-.375-1.097656-.519531-1.65625-.113281-.402344-.257812-.800781-.335938-1.210937-.203124-1.003907-.3125-2.027344-.320312-3.054688 0-1.722656.3125-3.433594.910156-5.046875.46875-1 1.085938-1.921875 1.832032-2.730469.234374-.253906.433593-.511718.707031-.796875.902343-.878906 1.917969-1.632812 3.015625-2.25.152344-.085937.335937-.144531.496094-.230469 1.140624-.574218 2.335937-1.03125 3.566406-1.371093l.898437-.230469c3-.734375 6.132813-.734375 9.132813 0 .320312.070312.632812.160156.945312.25 1.171875.320312 2.3125.757812 3.398438 1.300781.226562.113281.472656.203125.691406.320313 1.089844.617187 2.097656 1.371094 3 2.242187.246094.230469.429688.472657.636719.703125.78125.832032 1.421875 1.78125 1.898437 2.816406.589844 1.609376.886719 3.308594.871094 5.023438-.003906 1.023438-.109375 2.042969-.3125 3.046875zm.3125-115.046875v84.375c-.761719-.4375-1.519531-.878906-2.320312-1.261719-.535157-.25-1.078126-.441406-1.601563-.664062-1.367187-.5625-2.773437-1.023438-4.207031-1.386719-.589844-.140625-1.167969-.300781-1.765625-.421875-4.003907-.855469-8.140625-.855469-12.144531 0-.601563.121094-1.175782.269531-1.761719.421875-1.445313.359375-2.867188.824219-4.246094 1.386719-.519531.214843-1.058594.398437-1.601563.640625-.800781.382812-1.597656.796875-2.351562 1.269531v-84.359375zm-48 104v8c.015625 1.742188.175781 3.484375.480469 5.199219.046875.320312.078125.632812.144531.953125.0625.320312.136719.550781.199219.800781.0625.246094.105469.679687.191406 1.015625h-74.03125c.121094-.472656.175781-.953125.273437-1.433594.09375-.480468.191407-.902344.261719-1.359375.300781-1.710937.460938-3.441406.480469-5.175781-.015625-1.742188-.175781-3.484375-.480469-5.199219-.070312-.464843-.167969-.929687-.261719-1.394531-.097656-.460938-.152343-.941406-.273437-1.40625zm-104-8c6.257812.09375 11.894531 3.804688 14.449219 9.515625 2.554687 5.714844 1.566406 12.390625-2.539063 17.117187l-.101562.109376c-.332032.378906-.6875.734374-1.066406 1.066406l-.109376.101562c-.207031.1875-.441406.3125-.65625.480469-4.484374 3.492187-10.457031 4.402344-15.777343 2.402344-1.816407-.6875-3.492188-1.707031-4.941407-3-3.375-2.988281-5.292968-7.289063-5.257812-11.792969 0-8.835938 7.164062-16 16-16zm8 104h-9.753906l-6.246094-24.984375v-32c.457031.121094.9375.167969 1.398438.265625.464843.09375.960937.199219 1.449218.277344 1.554688.257812 3.121094.402344 4.695313.433594h.457031.457031c1.574219-.03125 3.140625-.175782 4.695313-.433594.488281-.078125.96875-.175782 1.449218-.277344.476563-.105469.941407-.144531 1.398438-.265625zm16-64h91.054688l.433593.351562c.734375.632813 1.433594 1.28125 2.222657 1.839844.792968.5625 1.839843 1.097656 2.777343 1.601563 1.953125 1.277343 4.121094 2.195312 6.398438 2.703125.839843.257812 1.640625.601562 2.503906.800781 4.34375.925781 8.835937.925781 13.175781 0 .960938-.199219 1.847656-.585937 2.777344-.863281 2.316406-.539063 4.519531-1.488282 6.496094-2.808594.800781-.457031 1.601562-.855469 2.34375-1.378906.835937-.621094 1.640625-1.292969 2.402344-2.007813l.359374-.238281h91.054688v16h-224zm8 32h208v16h-208zm16 32h32v96h16v-96h80v96h16v-96h32v112h-80v-96h-16v96h-80zm-16 128h208v16h-208zm-120 80c0-22.089844 17.910156-40 40-40s40 17.910156 40 40-17.910156 40-40 40c-22.082031-.027344-39.972656-17.917969-40-40zm79.199219 40 .207031-.222656c.65625-.65625 1.265625-1.363282 1.898438-2.050782.632812-.6875 1.199218-1.261718 1.757812-1.933593.5625-.671875 1.175781-1.527344 1.753906-2.304688.574219-.777343 1.03125-1.320312 1.511719-2.015625.558594-.800781 1.054687-1.703125 1.601563-2.5625.414062-.6875.871093-1.359375 1.253906-2.070312.496094-.902344.921875-1.847656 1.359375-2.785156.34375-.710938.722656-1.40625 1.03125-2.132813.425781-.984375.800781-2 1.121093-3.011719.265626-.726562.570313-1.429687.800782-2.167968.34375-1.09375.601562-2.230469.871094-3.351563.167968-.679687.386718-1.34375.527343-2.039063.265625-1.28125.433594-2.597656.609375-3.910156.070313-.5625.199219-1.113281.257813-1.679687.394531-3.832031.394531-7.691407 0-11.523438-.058594-.566406-.1875-1.117187-.257813-1.679687-.175781-1.3125-.34375-2.628906-.609375-3.910156-.140625-.695313-.359375-1.359376-.527343-2.039063-.269532-1.121094-.527344-2.257813-.871094-3.351563-.230469-.738281-.535156-1.441406-.800782-2.167968-.359374-1.011719-.695312-2.027344-1.121093-3.011719-.308594-.726563-.6875-1.421875-1.03125-2.132813-.4375-.9375-.863281-1.882812-1.359375-2.785156-.382813-.710937-.839844-1.382812-1.253906-2.070312-.53125-.859375-1.027344-1.738282-1.601563-2.5625-.480469-.695313-1.007813-1.34375-1.511719-2.015625s-1.136718-1.601563-1.753906-2.304688c-.613281-.703125-1.175781-1.296875-1.757812-1.933593-.585938-.640626-1.242188-1.394532-1.898438-2.050782l-.207031-.222656h105.679687c-10.792968 10.511719-16.878906 24.933594-16.878906 40s6.085938 29.488281 16.878906 40zm200.800781-40c.003906-15.066406-6.085938-29.492188-16.878906-40h105.597656l-.101562.113281c-1.234376 1.214844-2.402344 2.480469-3.519532 3.808594-.234375.277344-.441406.582031-.671875.871094-.859375 1.046875-1.683593 2.117187-2.449219 3.199219-.351562.503906-.664062 1.03125-1 1.550781-.601562.929687-1.191406 1.871093-1.746093 2.839843-.335938.59375-.636719 1.203126-.949219 1.808594-.488281.945313-.953125 1.886719-1.386719 2.855469-.292969.648437-.558593 1.304687-.796875 1.960937-.386718.976563-.746094 1.960938-1.082031 2.960938-.230469.671875-.457031 1.351562-.65625 2.039062-.3125 1.039063-.566406 2.097657-.800781 3.152344-.152344.671875-.320313 1.335938-.453125 2.015625-.226563 1.175781-.394531 2.398438-.546875 3.566407-.070313.59375-.175782 1.167968-.238282 1.761718-.167968 1.800782-.273437 3.625-.273437 5.464844s.105469 3.664062.273437 5.464844c.0625.589844.167969 1.167968.238282 1.757812.152344 1.199219.320312 2.402344.546875 3.570313.125.671875.292969 1.328125.445312 1.992187.257813 1.070313.519531 2.140625.800781 3.199219.199219.664063.417969 1.320313.640626 1.976563.34375 1.03125.710937 2.046874 1.121093 3.046874.246094.625.503907 1.238282.796875 1.855469.464844 1.03125.953125 2.039063 1.472656 3.039063.28125.535156.554688 1.074218.847657 1.601562.625 1.101563 1.285156 2.183594 1.984375 3.238282.25.378906.472656.800781.730468 1.136718 1.992188 2.925782 4.257813 5.65625 6.765626 8.152344h-105.589844c10.792968-10.507812 16.882812-24.933594 16.878906-40zm128 40c-2.390625-.027344-4.773438-.269531-7.121094-.71875-1.269531-.261719-2.523437-.589844-3.757812-.976562-1.269532-.328126-2.523438-.71875-3.753906-1.167969-.894532-.34375-1.734376-.800781-2.597657-1.191407-1.492187-.714843-2.9375-1.515624-4.328125-2.402343-.59375-.375-1.152344-.800781-1.722656-1.191407-1.511719-1.082031-2.949219-2.269531-4.304688-3.550781-.414062-.402343-.796874-.800781-1.214843-1.214843-1.339844-1.398438-2.574219-2.894532-3.695313-4.472657-.328125-.464843-.671875-.914062-.984375-1.386719-1.027343-1.609374-1.9375-3.292968-2.726562-5.03125-.265625-.566406-.570313-1.109374-.800781-1.695312-.699219-1.78125-1.269532-3.609375-1.703126-5.472656-.152343-.625-.386718-1.222656-.511718-1.855469-1.035156-5.085937-1.035156-10.328125 0-15.414063.125-.648437.359375-1.257812.519531-1.898437.429687-1.84375.992187-3.652344 1.6875-5.414063.246094-.617187.566406-1.191406.847656-1.792968.769531-1.691406 1.65625-3.324219 2.65625-4.886719.351563-.546875.734375-1.050781 1.113281-1.601563 1.066407-1.484374 2.234376-2.898437 3.496094-4.222656.476563-.511718.972656-1 1.488282-1.480468 1.238281-1.160157 2.546874-2.242188 3.917968-3.242188.710938-.511719 1.417969-1.023438 2.160156-1.496094 1.230469-.753906 2.496094-1.441406 3.800782-2.0625 1.023437-.496094 2.039062-1.015625 3.109375-1.433594 1.074219-.414062 2.195312-.695312 3.304687-1.023437 1.347656-.425781 2.71875-.777344 4.105469-1.054687 14.832031-2.527344 29.824219 3.492187 38.792969 15.574218 8.964844 12.078125 10.390625 28.171875 3.679687 41.636719-6.707031 13.46875-20.414062 22.023437-35.457031 22.140625zm0 0" />
    <path d="m446.527344 416c-2.417969-6.777344-7.75-12.109375-14.527344-14.527344v-9.472656h-16v9.472656c-6.777344 2.417969-12.109375 7.75-14.527344 14.527344h-9.472656v16h9.472656c2.417969 6.777344 7.75 12.109375 14.527344 14.527344v9.472656h16v-9.472656c6.777344-2.417969 12.109375-7.75 14.527344-14.527344h9.472656v-16zm-22.527344 16c-4.417969 0-8-3.582031-8-8s3.582031-8 8-8 8 3.582031 8 8-3.582031 8-8 8zm0 0" />
</svg>
