<svg version="1.1" id="Слой_1" xmlns="http://www.w3.org/2000/svg" xmlns:xlink="http://www.w3.org/1999/xlink" x="0px" y="0px" viewBox="0 0 496 496" style="enable-background:new 0 0 496 496;" xml:space="preserve">
    <path d="M488,272c4.4,0,8-3.6,8-8c0-39.7-32.3-72-72-72h-88v-56c0-4.4-3.6-8-8-8h-48c-4.4,0-8,3.6-8,8v56h-48v-56c0-4.4-3.6-8-8-8
	h-48c-4.4,0-8,3.6-8,8v56H72c-39.7,0-72,32.3-72,72c0,4.4,3.6,8,8,8h24v176H8c-4.4,0-8,3.6-8,8v32c0,4.4,3.6,8,8,8h480
	c4.4,0,8-3.6,8-8v-32c0-4.4-3.6-8-8-8h-24V272H488z M288,144h32v48h-32V144z M176,144h32v48h-32V144z M72,208h352
	c28.2,0,51.5,20.9,55.4,48H16.6C20.5,228.9,43.8,208,72,208z M384,448V304h16v144H384z M368,448h-16V272h16V448z M240,448V272h16
	v176H240z M128,448V272h16v176H128z M112,304v144H80V304H112z M224,288h-64v-16h64V288z M160,304h16v144h-16V304z M192,304h32v144
	h-32V304z M336,288h-64v-16h64V288z M272,304h16v144h-16V304z M304,304h32v144h-32V304z M112,272v16H48v-16H112z M48,304h16v144H48
	V304z M480,480H16v-16h464V480z M416,448V304h32v144H416z M448,288h-64v-16h64V288z" />
    <path d="M432,224h16v16h-16V224z" />
    <path d="M400,224h16v16h-16V224z" />
    <path d="M368,224h16v16h-16V224z" />
    <path d="M336,224h16v16h-16V224z" />
    <path d="M422.8,39.8c-1-0.4-23.8-9.3-41.6,0.1c-14.1,7.5-38.8,1.9-45.1,0.2v-4.8c0-1.2-0.9-2.1-2.1-2.1s-2.1,0.9-2.1,2.1v6.3
	c0,0,0,0.1,0,0.1c0,0,0,0,0,0.1v60.6v2.3v52.3c0,1.2,0.9,2.1,2.1,2.1s2.1-0.9,2.1-2.1v-49.5c4.8,1.2,15.2,3.4,25.9,3.4
	c7.5,0,15.1-1.1,21.2-4.3c16-8.5,37.9,0,38.1,0.1c0.6,0.3,1.4,0.2,2-0.2c0.6-0.4,0.9-1,0.9-1.7V41.7
	C424.1,40.9,423.6,40.1,422.8,39.8z M419.9,101.7c-6.8-2.2-24.4-6.5-38.7,1.1c-14.1,7.5-38.8,1.9-45.1,0.2v-0.6V44.5
	c8.1,2,32.2,7,47.1-0.9c13.8-7.3,31.8-2.1,36.8-0.4V101.7z" />
</svg>
