<svg version="1.1" id="Слой_1" xmlns="http://www.w3.org/2000/svg" xmlns:xlink="http://www.w3.org/1999/xlink" x="0px" y="0px"
	 viewBox="0 0 512 512" style="enable-background:new 0 0 512 512;" xml:space="preserve">
<path d="M297.5,493c-2.6,0-5.2,1.1-7.1,2.9c-1.9,1.9-2.9,4.4-2.9,7.1s1.1,5.2,2.9,7.1c1.9,1.9,4.4,2.9,7.1,2.9
	c2.6,0,5.2-1.1,7.1-2.9s2.9-4.4,2.9-7.1s-1.1-5.2-2.9-7.1S300.1,493,297.5,493z"/>
<path d="M215,453c-2.6,0-5.2,1.1-7.1,2.9s-2.9,4.4-2.9,7.1s1.1,5.2,2.9,7.1s4.4,2.9,7.1,2.9c2.6,0,5.2-1.1,7.1-2.9
	c1.9-1.9,2.9-4.4,2.9-7.1s-1.1-5.2-2.9-7.1C220.2,454.1,217.6,453,215,453z"/>
<path d="M380,453c-2.6,0-5.2,1.1-7.1,2.9s-2.9,4.4-2.9,7.1s1.1,5.2,2.9,7.1s4.4,2.9,7.1,2.9c2.6,0,5.2-1.1,7.1-2.9s2.9-4.4,2.9-7.1
	s-1.1-5.2-2.9-7.1S382.6,453,380,453z"/>
<path d="M57.1,470.1c1.9-1.9,2.9-4.4,2.9-7.1s-1.1-5.2-2.9-7.1S52.6,453,50,453s-5.2,1.1-7.1,2.9S40,460.4,40,463s1.1,5.2,2.9,7.1
	s4.4,2.9,7.1,2.9S55.2,471.9,57.1,470.1z"/>
<path d="M507.9,494.9l-48.3-35.2c0.9-0.9,1.7-1.8,2.5-2.8l45.2-61.1c3.8-5.2,5.4-11.5,4.4-17.8c-0.9-6.3-4.3-11.9-9.5-15.7
	l-41.8-30.9c-10.6-7.9-25.7-5.6-33.6,5l-45.2,61.1c-0.6,0.9-1.2,1.8-1.7,2.7V333c0-13.2-10.8-24-24-24h-52c-13.2,0-24,10.8-24,24v76
	c0,1.4,0.1,2.7,0.3,4h-20.7c0.2-1.3,0.3-2.6,0.3-4v-76c0-13.2-10.8-24-24-24h-52c-13.2,0-24,10.8-24,24v76c0,1.4,0.1,2.7,0.3,4H50
	c-27.6,0-50,22.4-50,50s22.4,50,50,50h211.7c5.5,0,10-4.5,10-10c0-5.5-4.5-10-10-10H255c6.3-8.4,10-18.8,10-30
	c0-11.2-3.7-21.6-10-30H340c-6.3,8.4-10,18.8-10,30c0,11.3,3.7,21.6,10,30h-6.4c-5.5,0-10,4.5-10,10c0,5.5,4.5,10,10,10H502
	c4.3,0,8.2-2.8,9.5-6.9C512.8,502,511.4,497.5,507.9,494.9z M397.8,409.3l45.2-61.1c0.8-1.1,2-1.6,3.2-1.6c0.8,0,1.7,0.3,2.4,0.8
	l41.8,30.9c1.2,0.9,1.5,2,1.6,2.6c0.1,0.6,0.1,1.8-0.7,3L446,444.9c-1.1,1.5-3.1,2-4.8,1.3l-15.5-11.3l-2.7-2
	c0.6,0.1,1.2,0.2,1.8,0.2c2.6,0,5.2-1.1,7.1-2.9c1.9-1.9,2.9-4.4,2.9-7.1c0-2.6-1.1-5.2-2.9-7.1c-1.9-1.9-4.4-2.9-7.1-2.9
	c-2.6,0-5.2,1.1-7.1,2.9c-1.9,1.9-2.9,4.4-2.9,7.1c0,1.6,0.4,3.2,1.2,4.7l-2.9-2.2c-2.3-2-4.7-3.8-7.3-5.4l-7.2-5.3
	c-1.2-0.9-1.5-2-1.6-2.6C397,411.6,396.9,410.4,397.8,409.3z M180,409v-76c0-2.2,1.8-4,4-4h52c2.2,0,4,1.8,4,4v76c0,2.2-1.8,4-4,4
	h-21.7c1-0.5,2-1.1,2.8-1.9c1.9-1.9,2.9-4.4,2.9-7.1s-1.1-5.2-2.9-7.1s-4.4-2.9-7.1-2.9c-2.6,0-5.2,1.1-7.1,2.9
	c-1.9,1.9-2.9,4.4-2.9,7.1s1.1,5.2,2.9,7.1c0.8,0.8,1.7,1.4,2.8,1.9H184C181.8,413,180,411.2,180,409z M175,493H90
	c6.3-8.4,10-18.8,10-30c0-11.3-3.7-21.6-10-30H175c-6.3,8.4-10,18.8-10,30C165,474.2,168.7,484.6,175,493z M20,463
	c0-16.5,13.5-30,30-30s30,13.5,30,30s-13.5,30-30,30S20,479.5,20,463z M185,463c0-16.5,13.5-30,30-30c16.5,0,30,13.5,30,30
	s-13.5,30-30,30C198.5,493,185,479.5,185,463z M300,409v-76c0-2.2,1.8-4,4-4h52c2.2,0,4,1.8,4,4v76c0,2.2-1.8,4-4,4h-21.7
	c1-0.5,2-1.1,2.8-1.9c1.9-1.9,2.9-4.4,2.9-7.1s-1.1-5.2-2.9-7.1s-4.4-2.9-7.1-2.9s-5.2,1.1-7.1,2.9s-2.9,4.4-2.9,7.1
	s1.1,5.2,2.9,7.1c0.8,0.8,1.7,1.4,2.8,1.9H304C301.8,413,300,411.2,300,409z M350,463c0-16.5,13.5-30,30-30c5.4,0,10.4,1.4,14.8,3.9
	l5.7,4.2c5.8,5.5,9.5,13.2,9.5,21.9c0,16.5-13.5,30-30,30C363.5,493,350,479.5,350,463z M420,493c6.3-8.4,10-18.8,10-30
	c0-0.1,0-0.1,0-0.2c0.1,0.1,0.3,0.2,0.4,0.3l40.9,29.9H420z"/>
<path d="M39.8,229.8c0.1,0.1,0.1,0.2,0.2,0.3V305c0,13.2,10.8,24,24,24h52c13.2,0,24-10.8,24-24v-74.9c0.1-0.1,0.1-0.2,0.2-0.3
	l18.9-35c2.1-3.9,1.4-8.7-1.7-11.8l-38-38.1V45.7c0-5.5-4.5-10-10-10c-5.5,0-10,4.5-10,10v93.2H80.6V11c0-5.5-4.5-10-10-10
	s-10,4.5-10,10v133.8l-38,38.1c-3.1,3.1-3.8,7.9-1.7,11.8L39.8,229.8z M120,305c0,2.2-1.8,4-4,4H94.3c1-0.5,2-1.1,2.8-1.9
	c1.9-1.9,2.9-4.4,2.9-7.1c0-2.6-1.1-5.2-2.9-7.1c-1.9-1.9-4.4-2.9-7.1-2.9c-2.6,0-5.2,1.1-7.1,2.9c-1.9,1.9-2.9,4.4-2.9,7.1
	c0,2.6,1.1,5.2,2.9,7.1c0.8,0.8,1.7,1.4,2.8,1.9H64c-2.2,0-4-1.8-4-4v-76c0-2.2,1.8-4,4-4h52c2.2,0,4,1.8,4,4V305z M74.8,158.8h30.3
	l32.8,32.9l-9.1,17c-3.7-2.4-8.1-3.7-12.8-3.7H64c-4.7,0-9.1,1.4-12.8,3.7l-9.1-17L74.8,158.8z"/>
<path d="M109.4,21c2.6,0,5.2-1.1,7.1-2.9c1.9-1.9,2.9-4.4,2.9-7.1s-1.1-5.2-2.9-7.1C114.6,2.1,112,1,109.4,1c-2.6,0-5.2,1.1-7.1,2.9
	c-1.9,1.9-2.9,4.4-2.9,7.1s1.1,5.2,2.9,7.1C104.2,19.9,106.8,21,109.4,21z"/>
</svg>
