<svg version="1.1" id="Capa_1" xmlns="http://www.w3.org/2000/svg" xmlns:xlink="http://www.w3.org/1999/xlink" x="0px" y="0px"
	 viewBox="0 0 512 512" style="enable-background:new 0 0 512 512;" xml:space="preserve">
<g>
	<g>
		<path d="M133.5,408.7c-5.8-3.9-12.5-6.3-19.4-7.2c13.3-10.5,21.5-26.2,22.5-43.1c0-56.4-32.5-68.3-59.7-68.3S17.1,302,17.1,358.4
			c1,16.9,9.2,32.6,22.5,43.1C16.9,404.3,0,423.5,0,446.3v57.2c0,4.7,3.8,8.5,8.5,8.5h136.5c4.7,0,8.5-3.8,8.5-8.5v-57.2
			C153.6,431.2,146,417,133.5,408.7z M34.6,349.4c2.3-28.6,15.8-42.2,42.2-42.2c24.2,0,37.5,11.5,41.4,35.3l-28.4-17.1
			c-4-2.4-9.3-1.1-11.7,2.9c-0.3,0.5-0.6,1.1-0.8,1.7C72.9,343,49.6,347.9,34.6,349.4z M35.3,366.5c14.6-1.2,41-5.6,53.2-21.8
			l30.5,18.3c-3.4,20.9-29.2,38.1-42.3,38.1C57.8,397.8,41.9,384.6,35.3,366.5z M83.8,450.2l-7,7.1l-7-7.1l7-17.6L83.8,450.2z
			 M136.5,494.9H17.1v-48.6c0-15.6,12.6-28.2,28.2-28.2h18.9l-12.4,31c-1.3,3.2-0.5,6.8,1.9,9.2l17.1,17.1c3.3,3.3,8.7,3.3,12.1,0
			l17.1-17.1c2.4-2.4,3.2-6,1.9-9.2l-12.4-31h19c15.6,0,28.2,12.6,28.2,28.2V494.9z"/>
	</g>
</g>
<g>
	<g>
		<path d="M312.7,408.7c-5.8-3.9-12.5-6.3-19.4-7.2c13.3-10.5,21.5-26.2,22.5-43.1c0-56.4-32.5-68.3-59.7-68.3s-59.7,11.8-59.7,68.3
			c1,16.9,9.2,32.6,22.5,43.1c-22.6,2.8-39.6,22-39.6,44.8v57.2c0,4.7,3.8,8.5,8.5,8.5h136.5c4.7,0,8.5-3.8,8.5-8.5v-57.2
			C332.8,431.2,325.2,417,312.7,408.7z M213.8,349.4c2.3-28.6,15.8-42.2,42.2-42.2c24.2,0,37.5,11.5,41.4,35.3l-28.4-17.1
			c-4-2.4-9.3-1.1-11.7,2.9c-0.3,0.5-0.6,1.1-0.8,1.7C252.1,343,228.8,347.9,213.8,349.4z M214.5,366.5c14.6-1.2,41-5.6,53.2-21.8
			l30.5,18.3c-3.4,20.9-29.2,38.1-42.3,38.1C237,397.8,221.1,384.6,214.5,366.5z M263,450.2l-7,7.1l-7-7.1l7-17.6L263,450.2z
			 M315.7,494.9H196.3v-48.6c0-15.6,12.6-28.2,28.2-28.2h18.9l-12.4,31c-1.3,3.2-0.5,6.8,1.9,9.2l17.1,17.1c3.3,3.3,8.7,3.3,12.1,0
			l17.1-17.1c2.4-2.4,3.2-6,1.9-9.2l-12.4-31h19c15.6,0,28.2,12.6,28.2,28.2V494.9z"/>
	</g>
</g>
<g>
	<g>
		<path d="M491.9,408.7c-5.8-3.9-12.5-6.3-19.4-7.2c13.3-10.5,21.5-26.2,22.5-43.1c0-56.4-32.5-68.3-59.7-68.3
			c-27.2,0-59.7,11.8-59.7,68.3c1,16.9,9.2,32.6,22.5,43.1c-22.6,2.8-39.6,22-39.6,44.8v57.2c0,4.7,3.8,8.5,8.5,8.5h136.5
			c4.7,0,8.5-3.8,8.5-8.5v-57.2C512,431.2,504.4,417,491.9,408.7z M393,349.4c2.3-28.6,15.8-42.2,42.2-42.2
			c24.2,0,37.5,11.5,41.4,35.3l-28.4-17.1c-4-2.4-9.3-1.1-11.7,2.9c-0.3,0.5-0.6,1.1-0.8,1.7C431.3,343,408,347.9,393,349.4z
			 M393.7,366.5c14.6-1.2,41-5.6,53.2-21.8l30.5,18.3c-3.4,20.9-29.2,38.1-42.3,38.1C416.2,397.8,400.3,384.6,393.7,366.5z
			 M442.2,450.2l-7,7.1l-7-7.1l7-17.6L442.2,450.2z M494.9,494.9H375.5v-48.6c0-15.6,12.6-28.2,28.2-28.2h18.9l-12.4,31
			c-1.3,3.2-0.5,6.8,1.9,9.2l17.1,17.1c3.3,3.3,8.7,3.3,12.1,0l17.1-17.1c2.4-2.4,3.2-6,1.9-9.2l-12.4-31h19
			c15.6,0,28.2,12.6,28.2,28.2V494.9z"/>
	</g>
</g>
<g>
	<g>
		<path d="M392.5,256V145.1c0-4.7-3.8-8.5-8.5-8.5h-76.8v-25.6c0-4.7-3.8-8.5-8.5-8.5h-51.8c-12.5-21.8-36.1-34.9-61.2-34.1
			c-37.4,2.1-66.6,33.3-66.2,70.8c0,22.3,6.3,44.1,18.3,62.9l34.4,54.1h-10.1v17.1h238.9V256H392.5z M213.3,256h-10.1l10.1-15.8V256
			z M187.7,248.6l-35.5-55.9c-10.2-16.1-15.7-34.7-15.7-53.7c-0.5-28.3,21.4-52,49.6-53.7h1.6c28.3,0,51.2,22.9,51.2,51.2v2.5
			c0,19-5.4,37.7-15.7,53.8L187.7,248.6z M290.1,256h-59.7v-42.6l7.3-11.4c12-18.8,18.3-40.6,18.3-62.9v-2.5
			c0-5.8-0.8-11.5-2.2-17.1h36.4V256z M349.9,256h-17.1v-25.6h17.1V256z M375.5,162.1h-17.1v17.1h17.1v8.5h-17.1v17.1h17.1V256h-8.5
			v-34.1c0-4.7-3.8-8.5-8.5-8.5h-34.1c-4.7,0-8.5,3.8-8.5,8.5V256h-8.5v-51.2h17.1v-17.1h-17.1v-8.5h17.1v-17.1h-17.1v-8.5h68.3
			V162.1z"/>
	</g>
</g>
<g>
	<g>
		<rect x="264.5" y="128" width="17.1" height="17.1"/>
	</g>
</g>
<g>
	<g>
		<rect x="332.8" y="162.1" width="17.1" height="17.1"/>
	</g>
</g>
<g>
	<g>
		<rect x="332.8" y="187.7" width="17.1" height="17.1"/>
	</g>
</g>
<g>
	<g>
		<rect x="264.5" y="153.6" width="17.1" height="17.1"/>
	</g>
</g>
<g>
	<g>
		<rect x="264.5" y="179.2" width="17.1" height="17.1"/>
	</g>
</g>
<g>
	<g>
		<rect x="238.9" y="204.8" width="17.1" height="17.1"/>
	</g>
</g>
<g>
	<g>
		<rect x="264.5" y="204.8" width="17.1" height="17.1"/>
	</g>
</g>
<g>
	<g>
		<rect x="238.9" y="230.4" width="17.1" height="17.1"/>
	</g>
</g>
<g>
	<g>
		<rect x="264.5" y="230.4" width="17.1" height="17.1"/>
	</g>
</g>
<g>
	<g>
		<path d="M473.5,178l-16.7,3.4c1,5.2,1.9,10.5,2.6,15.8l16.9-2C475.6,189.5,474.7,183.7,473.5,178z"/>
	</g>
</g>
<g>
	<g>
		<path d="M38.4,178.5c-1.2,5.7-2.1,11.5-2.7,17.2l16.9,2c0.6-5.3,1.5-10.6,2.5-15.9L38.4,178.5z"/>
	</g>
</g>
<g>
	<g>
		<path d="M449.4,113.1l-14.9,8.4c2.6,4.6,5.1,9.4,7.3,14.3l15.5-7.2C454.9,123.3,452.2,118.1,449.4,113.1z"/>
	</g>
</g>
<g>
	<g>
		<path d="M430,84.2l-13.4,10.6c3.3,4.2,6.5,8.5,9.5,13l14.1-9.5C437,93.4,433.6,88.7,430,84.2z"/>
	</g>
</g>
<g>
	<g>
		<path d="M81.8,84.5c-3.6,4.5-7,9.3-10.3,14.1l14.2,9.5c3-4.4,6.1-8.8,9.5-13L81.8,84.5z"/>
	</g>
</g>
<g>
	<g>
		<path d="M406.4,58.7l-11.6,12.5c4,3.7,7.8,7.5,11.4,11.3L418.7,71C414.8,66.8,410.6,62.7,406.4,58.7z"/>
	</g>
</g>
<g>
	<g>
		<path d="M62.4,113.3c-2.8,5-5.5,10.2-7.9,15.5L70,136c2.3-4.9,4.7-9.7,7.3-14.3L62.4,113.3z"/>
	</g>
</g>
<g>
	<g>
		<path d="M47.8,145c-2,5.5-3.8,11-5.4,16.6l16.4,4.6c1.4-5.1,3.1-10.2,5-15.3L47.8,145z"/>
	</g>
</g>
<g>
	<g>
		<path d="M105.4,58.9c-4.3,3.9-8.4,8.1-12.3,12.3l12.5,11.6c3.6-3.9,7.4-7.7,11.3-11.3L105.4,58.9z"/>
	</g>
</g>
<g>
	<g>
		<path d="M464.1,144.6l-16,5.9c1.9,5,3.5,10.2,5,15.3l16.4-4.7C467.9,155.6,466.1,150,464.1,144.6z"/>
	</g>
</g>
<g>
	<g>
		<path d="M195.6,8.3c-5.6,1.6-11.2,3.4-16.5,5.4l5.9,16c5-1.8,10.1-3.5,15.3-5L195.6,8.3z"/>
	</g>
</g>
<g>
	<g>
		<path d="M229.8,1.5c-5.7,0.7-11.5,1.6-17.2,2.7l3.3,16.8c5.3-1,10.6-1.9,15.9-2.5L229.8,1.5z"/>
	</g>
</g>
<g>
	<g>
		<path d="M247.1,0.2l0.6,17.1c5.3-0.2,10.8-0.2,16.1,0l0.7-17.1C258.8-0.1,252.9,0,247.1,0.2z"/>
	</g>
</g>
<g>
	<g>
		<path d="M163,20.4c-5.2,2.4-10.5,5.1-15.5,7.9l8.4,14.9c4.7-2.6,9.5-5.1,14.3-7.3L163,20.4z"/>
	</g>
</g>
<g>
	<g>
		<path d="M281.8,1.5l-2,16.9c5.2,0.6,10.6,1.4,15.9,2.5L299,4.2C293.3,3,287.6,2.1,281.8,1.5z"/>
	</g>
</g>
<g>
	<g>
		<path d="M379,37.2l-9.5,14.2c4.4,2.9,8.8,6.1,13,9.4l10.5-13.4C388.5,43.8,383.8,40.4,379,37.2z"/>
	</g>
</g>
<g>
	<g>
		<path d="M316,8.2l-4.6,16.4c5.1,1.4,10.2,3.1,15.3,4.9l5.9-16C327.1,11.6,321.5,9.8,316,8.2z"/>
	</g>
</g>
<g>
	<g>
		<path d="M132.7,37.4c-4.8,3.3-9.6,6.7-14.1,10.2L129.2,61c4.1-3.3,8.5-6.5,13-9.5L132.7,37.4z"/>
	</g>
</g>
<g>
	<g>
		<path d="M348.6,20.2l-7.1,15.5c4.8,2.2,9.7,4.7,14.3,7.3l8.3-14.9C359.1,25.3,353.9,22.6,348.6,20.2z"/>
	</g>
</g>
<g>
	<g>
		<path d="M187.7,102.4c-18.9,0-34.1,15.3-34.1,34.1s15.3,34.1,34.1,34.1s34.1-15.3,34.1-34.1S206.6,102.4,187.7,102.4z
			 M187.7,153.6c-9.4,0-17.1-7.6-17.1-17.1c0-9.4,7.6-17.1,17.1-17.1c9.4,0,17.1,7.6,17.1,17.1S197.2,153.6,187.7,153.6z"/>
	</g>
</g>
</svg>
