<svg xmlns="http://www.w3.org/2000/svg" viewBox="0 0 709.81 612.52"><defs><style>.cls-1,.cls-2{stroke:#fff;stroke-width:0.5px;isolation:isolate;}.cls-1{opacity:0.5;}.cls-2{opacity:0.2;}</style></defs><title>брест темный</title><g id="Слой_2" data-name="Слой 2"><g id="Слой_1-2" data-name="Слой 1"><g id="Слой_2-2" data-name="Слой 2"><g id="Слой_1-2-2" data-name="Слой 1-2"><path id="BY-BR" class="cls-1" d="M56.38,430.42h5.75l.23-1.19,5.7.27.11-1.43,2.28-.74,3,1.59-.24,3,1.09.92,1.56-.36,1.39.81.12-.93.84,2.44.7-.48v-2l1.8-1.18.93.51L81,433.42,82.23,432l3.85,2,4-2.33,1.13.28v2.41l8.94-.19,3.13-1.72.79.94.07-2.61L103,428.72l1.55-4.07h.62l.6-2.78-1.73.39.93-.82-1.46-1.51,2.62-4.1,2.94-.93-1.68-1,.26-.78-1.45-.43.31-1.5,4.1-2.83.19-1.36,2.28-.55.43-1.41,1.52.17-.49,4.32,2.31,1,2.5-1.11,1.34,1.45,2-2.26.59.27-.41,1.31,1.06.38.68-.77,3.61.38,1.52-1.76h1.16l.64.82.66-.4,2.12,3.9-1.21,1.44,3,3.24.94-.39,1.74-4.44L140,413l.15,2-.88,2.33.71.83L139,420l.95,1.09-.9,1.35.71,1.25,1-.21.77-2.1,1.91,1.32-.16-.9,2.23-1-.17-.72h1.57l.6,2.07.91-.39,1.47,1,.8-.79-.52-.49,1.09-2.42,4-1.68,1,4.71,2.76,1,2.19-2.73-.5-1.32-2.53.26-.51-2.59,2.47-2.2-1.5-1.47-.82-2.65,4,.06.14.64,4.39-.91-.24-4,1.07-.48.82-2.41,5.22-2.51,1.69-2.65,3.7-.81L178,397l.28-1,1.51-1.79L177.56,392l-.12-1.24,1.61-.42L180.2,387h-.94l.37-3.61-2-1.18-.85-1.55,1.69-1.5.16-2.56H180l-1.31-2.64.89-3.59.77-.29-1-2,1.58.51,1.47-1-.62-.61.53-2.25,1.28-.27-.32-2.22.7-.88-.52-3.38,1.07.21.54-2,1,.27.51-1.78,2.18-.23,1.65.48.6,1.1,2.69.43,2.05-1.38,2.7.94,1.16-2,2.81-.27-.33,1.4,1.4-.49,1.7.9h2.06v1.29H210l.83.5-.44.85,1.67.62,1.39-.23,1.71-2.32.05,1.87.6.4,2.49-1.55,2,1H230.5l1.29,2.38,1-1.14,1.64-.61.58.82.32-.57h0l1.58,5.34,1.41.23-1.09,7.26-3.08.11-.12,2.28-1.9.46-.93,1.21.46,1.46-2.81.73.8,2.78,2.84,1,1,1.37v1.6l1.64-.31,1.32,1.13.14,2.18,2.22,1.51,4.59-.08.87,3.86,2.08.14,1.2,4.31-.49.5-3.63-1.12-1.19,1.76.63.41-.63.63.4,3.77-2.86-.3-.7,1.23-1.46.28-.38,1.31,1.64,4.24,1.84,2,.65,2,1.21.75-5.42,5.43-.36,1.6.62,2.08,4.06,2.34.11,1.35,4.83-7,.93,3.46,2.27-1.19,2.26-6.13,3.24,3.14-.38.34,2.32.39.52-.62,1.74,2.73,2,.54-.41-1.14,1.89.08.12-.71,1,.4.82,6.49,2.71,3.53,2.71.28,2.35-1,1.4,2.07.85-.12,4.53,2.8,4-5.44L285,435l-.66,3.19,2,.92.84,3.6-3,.94-.46,1.71,1,.39.22,4.68h-2.08l.1,2.44.87,1.22,1.35-.09.27,3.37,1.2.11.07,4.69-.75.06.87.75v2.9l4.87.21.74,4.44,2-.2.33,4.12,4.64-.08.12,2.4,3.42.94h0l-1.21,4.06.49,4.38,7.92-.08.09,2,2.57,2.12,4.4.2,1.75,2.43,1.58-.12,1.46,1,.06,1.67.77.22.33,1.56-.29,1.57,1,.9-2.42,3,1.57,2.34-.71.5-1.6,5.76.71,1.37L321,517l1.82.84,1.82-.31-.32,1.07,1,2.29h2.54l.08,3-.39,1.25-5.14,3.39-1.7,2.54,1.63,3.14.09,2.94L321.35,540l-1.71,2.07,2.1,3.15,2.39,2.08-1.87,4.51,1.26,1.32.09,1.23-2,2.56-1.69-.29-1,1.27-.36,2.37.77,1.75-.85,2.2,2.54,3.11-.32.78h0l-.63.82.26,2.64,1.1-.06-1.7,2.39-1.87-1.07.74-1.68-.44-.68-1.38,1-.85-1.51-1.84,1-.09,1-2.53-.3-2.27-1.2-1.48,1.4-7.17.31.06-2.26,2.13-3.81L301,564.48l-3,.33-.52-13-15.39.59-3.38,4-2.36-1.48-2.73-.14-2.35-2-3.94,1.07-.45-1.14-2.57-1.25.41-2.15-.63-1L261,547.18l-1.34-1.47-5.62.17-1.64-.65-.26,1-2.5.85-.92,1.86-5.24-.2-.24-1.64-1.88-.48-1.57-2.4-1.81.25-.22-4.82-2.06,1.45-4.46.3-1.16-1-5-.4-2.37,1.18-.9-.66-1.5.31-.17-1.6-1.18.21-3.43-4-3.2-.55-.35-1.23-2.68-.84L202.93,535l-7-1.18-.2-2.22-3.3-.85-.85.28,1,3.07-1.53-.3-3.77,1-7.61-.7L174,532l-1.22,2.1-1.92-1-.8,1.27h-4.76l-.63-.9-4.87-1-5.63-3.84-2.37.94-2.63-1.08-4.06,2.09h-3.22l-5.59,3.91-1.66.23-2.42,2.35h-2.46l-.95-1.7L123.32,537l-.51-1.67-.91-.24L117,538.66h-1.13l-1.93-1.55-3.29.45-3.15-1.18-4.36,1.44-6.93,1-6.65-.07-3.6,2.67.34,1.33-3.5,5.54,1.67,6.25L81,558.39l-11,6-3.39,5.39-4,2.31-1.85,2.42-5.47-2.1-3,.86-.2-2,2.46-2.82-6.26-1.7-2.59.8-.08-2.41-.76-.87-5.29,2L37.21,566l-1,1.47-4.16,2,1.82,3.71,2.31,1.32-.28,1.68L34.19,578l2.93,5.46-.79.78-3.22-.6-1-2.87L28.8,580l-.15-1.29,1-1.32-1-1.52.25-1.1-1-.42L27,572l.46-2.12-.56-1.63.6-.68-.69-.47.33-1.85.91-.58-.6-2.39.93-1.66-.87-.58.54-.45-.73-2.12-.7.33L26,557l.2-1.47,2.12-2.34.92.6,1.08-.31.79-1.58,2.43-.89-.16-1.37H34l.27-1.08L33,545.25,31.64,545l-.14-1.25.92-1.87-.58-2.39,1.81.47L33,538.44l1.18-.87-1.52-1.29-.39-1.61.4-.69,1,.3.11-1.23,1-.32-.38-1.88h-1l2-1.81,1.29.11-.35-1.65,1.68-1.75L36,522.63,36,520l-.65-1.88-.85-.37.92-.21-.83-.65.64-1.82-2.6-1.44-.45-1.1.72-.6-1.63-1.29-3-.17-.7,1-.58-2-2-1.24L24.91,507,23,506.41l.39-2.6,1,.16L24,503.2l-1.16-.28-1.39.87-.7-1.26L18.43,504l-.65-1.17-1.15.57-.42-2.77-1.46.62L14,499.8l-4-.16-.74-.34.07-1.21-2.71.85-4.41-1.38-.78-1.63.65-4.28-1.78-1,4.64-9,4.8-6.38.65-2.44L18.25,462l4.05-4.08,7.85-4.6,4-1.6,5.43-1,1.68.93,10.62-8.76,1-.06,3.39-4Z"/><path id="BY-HO" class="cls-2" d="M390.93,442.66l1,.72,2.1-2,.67,1.09,1.94-.7,3,.73.8-1.07,1.51.22,2-1.18,3.49,1.32,1.86-1.4,2.63,1.35,2.33-2.61v-1h3.88L418,436l-1.4.38-.25-1.28h-1l.64-3.26L419.5,433l1.62-2,1.65.29,5.87-8.2-.41-3,9.47-1.27.33.54,1.71-.89-1-4.33,4.36-6.91,1.5-.83,1.89,1.15,2.79.16,1.17,1.79,5.44.55,1.83.67.09.81.63-1.49,1.31.17-.13,1.58H461l.81,1.08,3.52-1.59,3.19-3.48.75.57,2.65-.23.52.61,2.45-.75,2.16.27,1.57,1.37.16-.72.61.35.61,1.15,4.1-1.31-.66-1.41L485,406l-4-1.75-1-.8-.55-2.24-1-.54,3.07-3.87-.86-1.88-2.2.77-1.64-3.32,1.91-1.29-1-2.44.25-.91,1,.21v-1.08l.71-.06.85,1.94,2.09-.55,1.07.81,4.08-2.12-1.25-.27-.26-1.34,1.54-1.5-.83.19-.26-1.2,1.06-.81-2.09-1,3.56-1.28-2.11-5.69.74-.21-.27-1.34-1.43-1.72-.07-5.09,3.64-3.67,3.43-1.69.81,3.92,2.13-.9-.66-.89,1-.49,1.43,1.06.3,1-1,.52-.39,1.49,3.49.52,1.15-2-.12-1.33,9.22,2.17,1,1.18-.16,1,1.87,1.18,2.13,6.9,1.09.92,1.86-1,.56.57,1.43-.85,1.48.42,2-2.66.08,1.26,3.55-.75,1.29-1.3,3.39.53.21-2,2.26-1.79L538,370,539,368.6l-.2-1,1.8.31.93-2.58,2.67.27,1.62-2.49.31-2.11,1.23.68-1.45,2.68,1.37.74-.63,1.42,7,1.36-1,2.16,1.91,1.84,3.06-.36v-1.76l2.53-.23.67-.9,5.13.73,1.33-1.17-.32-1.38,1.53-.52,3-.6.43.91,6.8-.56.37.7-.9,2-2.08,2,1.16,1.82,1.43-1,1.09,1.15.89-.53.61.78-.64,2.31,1.93,1.21.11,2.9,2.47-.49.61,2,1.36.38.15,2-1.61,1.55,1.09,2,6.45-.58,1.26,3.49.55-.72,1.1.56.41-.6v.87l5.69.12,1,2.26h1.5l-2,.6-.38,6.06-1.73.6-3.07-.7L596,400.42l4.93,3.21.92,1.35,2.47.87.62,2.61,1,1.15-.27,3.31,8.09,8.14,4,.23.07,2.17-1.36,1.21.86,1.54,2.22,1.4.21,1.22,1.65.48.17,4,.81,2-1.91,1.8-1,2.52-4.79,1.7,4.61,5.59.65,1.58-.32,4.59,1.15.32,3.87,3.72,3,.34-2.62,2.4-.9-1.43-.84.34-.1,1.47-1.16.64-.1,2.07-2.6-.31,1.12,2.58,2.13-1,1.54,1.69-1.38,3-1.79.82,1.94.58.13,1.35-.91.5.47,1.69-.72.92,2-.18.71,2.38-.39,8.19-3.1.27v.68L624.2,490l.37-.79,1.63,2.25,2.39.14,2,1.41-1,1.12.91,2.29V499l-1.56,2.51,1.43,1,1.88-.64,3.57.66.29,6.27,1,1.61-5.65,3-.73-1.43-3.09-.92H622.7l-6.33-1.37-2.8,1-1.42-.49-.71-2.33-3.62-.11-2,1,.59,1.42-4.51,1.91L601,514.3l.52.66-1.64,3.44-3.16,1.23-2.06-1-1.07-1.32.1-1.2-3.88-.91-1.35-2.71-3.27,1.44-2.33-.06L577,515.58l-1.85-.66.07-.91-.92.17.13,1.75-1.39.2,1.09,2.76-.73-.06-.42-1.22-.63.28,1.11,1.63-1.16.65.89.86-.92-.13.53,1.15-1.19.23.49.76-.5.83,1.28.49v1.2l-1.14.29-1.09-1.49-.69,1,1.28,1.08-1.82.41.29,1.7-1.24.32-.68-.58-1.79,1.2v.85h1.1l-.69.85-1.56-1-1,.84,1.1,3.27-1.57,2.7-4.1-.43-.66,2.22-2.33,2-.82,3.64-3.22,1.42,1.31,3.41-1.23,1.35.24,1h-1.85l-1.34.83.25.88,1.81-.51.56.57-1.51,2.87-.35,2.6-4.42.94.92,3.35-.44,1.86-1.52-.17-1.5-1.45-1,.71,1.34,1.51-1.76,2.17-.19,1.35,2,.53-.11.8,1.66,1.11-.7.68-2-.5-.74.89,1.38,1.55,1.91.56-1.84.91v1l1.37,2.57,1.68-1.15.86.52-1,4.26,1.06,1,.52,2.92,2.35,1.34-.09.76-3,1.1.34,2.62.64.69,1.78-.47.1,1.26,2.54,4.12-1.28,2.4,1,2.55-2,.84-2.19,2.15,1.37.79-.66.81,1.48-.55-1.1,2.74-1.09-.06L544,612.21,541.48,610l-4,.85.72-3.87-4.36-.32-5.74-5.9,2.25-2.06-1.18-4.93.77-.48-1.26-.29-3.27-4.35L522.22,586,519,584.89l-2.13-2-.85,2.65-2.59-2.15-.49.24.5,1.72-.62.34-7.58-1.94-.35,1.72-1.54,1-1-.33-.8,1.56-2.81-2.19-2.38.62-.86.83.49.66-.91,3.12-2.62-1.38-2,.86-.8-1.17-.84.27v1.83l-3.57-1.88-1.3-3.7,1.36-.6-.13-2.46-.54-1.74h-1.54l-.52,1L479.85,583l-.24,1-1-.32-1.06.77-.73-.66-.81,1.35-1,.21v1.94l-1.79,1.44-3.19-2.1-1.64,3.93.2,2.74-1.36,3-6.65-1.58-2.12,1.09-2.11,2.36-2.32.54.12-3-1.48-6.08-2.67-.86v-1.58l-1.54-2.46,1-4-.53-4.35-3.09-.75-.41-2.84L443.2,571l.52-1.26-1.51-.65.94-2.27-.72-.7-4.32.2-5.81,7.43-2.2,1.71-1.73.15-.52-2-4.43.14-4,2.88-2.18.44-4.58,8.64,1.09,1.45.4,2.68-.59.25-.25,2.68L412,594.19l-1.14-2.4v-3.62l-2.62,2.8-1.36-.58-3-12.49.86-.89-1.41.56-.24-.52,2-1-7.52-.21v-1.21l-2.26-.3-.55-.92-3.51-.28-5.71,5-2.89,1.4-.65-4.12-4.61-5.81-1.84.26.75-6.5-.72-.74-6.28,4.26-.3,2.59-1.14,1.93-1.9.31-1.75,3.08-1.31.57-1.25-.51-2.37,1.58-7.15.91,2.61-4.3-1.47.07-.92,1.58-1.59.4.1-3.24-.83-1.45L346,568.78l-2,1-.64.68,1.4,1-1,4.26,1.65,3.48-1.08.89-2.56.38-3.24,6.8-1.36-.35-5.46-4.64,1-.41.18-2.32,3-2.9.67-2.85L336,572l-2.3-.08-.81-.86-2.58-.49-1.82,1.29-5.24-3.7-.93,1.63-1.52-1.61h0l.33-.78-2.54-3.11.85-2.2-.77-1.76.35-2.37,1-1.27,1.69.3,2-2.57-.08-1.23-1.26-1.32,1.87-4.51-2.39-2.07-2.1-3.16,1.71-2.06,1.06-2.85-.1-2.94-1.62-3.14,1.7-2.55,5.14-3.38L328,524l-.08-3h-2.54l-1-2.29.33-1.08-1.82.31-1.82-.84.37-4.41-.71-1.37,1.6-5.76.71-.5-1.56-2.34,2.42-3-1-.9.3-1.56-.33-1.56-.77-.22-.06-1.67-1.45-1-1.59.12-1.74-2.43-4.4-.2-2.58-2.12-.09-2-7.91.09-.49-4.39,1.21-4h0v-.72l2.17-1.07.86-1.59,3.23-2.65.67-1.27L308.25,466l1.61-.19v-1h.78l1.53-3.81,4.59.91.25-1.13,4.1.65,1.51-.6.2-1.45,1.9,1.79,1.82-1.9.4,1,1.3-.65-.1,1.83,1.46.06-1.24,5.58,2,.06,5.8,3.59.38,2.3,6-.6,6.73,1.84,2.08-1.22h2l.08-3.3,1.7-1-.86-4.62,1.82-1,9.49-1.23.89,4.47,4.62-.87.44,2.26,10.5-1.62,6.73-6.7.11-12.44Zm226.58,25-.18-1.28,2.67.13.78.71-.52,1.81-.88-1.48Z"/><path id="BY-HR" class="cls-2" d="M223.74,153.46l1.72.33,1.39,1.23,1.31,3.34-.35,1.28,1.85,1.09h0l-.26.95,6.31,5.81-1.28.79-.05,2.1-1.08.88,1,3.71-.48,1.2,1.43-.89,1.19.51,1.29-1,2.46-.29,1.54,1.36L246,183l3.31,1.38.49,2-.9,3.59,2,3.77.43,3.12,1.31.74.51,1.3,1.37-1.27,1.32.29.36.83,2.74-.67L258,200l.07,4.24,2.45.94-.31,1.28-2.35-.05.07,4.14-3.67-1.5,1.05,1.18-.79.89-.09,1.78,1.2.52-.41,1.37,1.31-.2-.23,2.49,1,1.26-1.59,3.54.4.67-1.27.61,1.92,1.08L253,228.85l-2.6-.11-1,2.25-1.17.09.5,2.29h-1.17l-2.69,6.18.28,2.35-1.65.25-.77.92-.89-.57-.38.95-1.08.08-1.36,3.28-.66-.13-1.64,2.67.42,1.16-1.41.23.39.73-1.62,2.08-1.5-.47-1.26.69-3-1.51-.77.62-.28-1.36-1.51-1.36-1.3,1.19-1.28-1-3.44,3.18L217.55,255l-1.18,1.91-2.24.15L213,256l.41-1.27-.66-.34-.82.82-.37,2.35-2.72,3.62.39,1.38,6.32,3.51.45-1.27-2-1.8,1-1,1.35.54,1.79-1.17h1.48v1.21l-1.41.68-.44,3.34,1.23,1.24-.58.69,1.15,2.27-.33,1.75,1.49,1.64.26,2,2.5.93,2.64-1.91.75.33,1.6-1.57,3.75-1.08.55,5.88L231.29,283l3.31-.76,3.46-2.76,2.79,6.45-2.14,2.73-2,.75-1.73-.3,2,3.56-4.15,1.48-2.24,2.35-1-1.27-1,1.46-2.77.19,1.92,4.46-2.17.27.65,1.54-.79.27,1.23,1.22,1.46-.89,1.22,1.46-1.51,1.25,1.3,1.92-.94.94,3.32,5.63.25,1.71,4.39,1.27-.8,3.45h1.83l1.3,1.16-.13,1.49,3,2.67.83,2.81,2.84,2.57-.5.61,4.44,2.19-.1,3.36-3.48,2.61,1.29,1,.63-1.35H248l.5,1.47,1.09-.33.29,8.48,1.76,4.12-4.18.83-.72,1-4-.52-2.5,1.43-.86-.7-2,2.4-1.33-.38-.79.64h0l-.32.57-.58-.81-1.64.61-1,1.15-1.29-2.38H220.29l-1.95-1-2.49,1.56-.6-.41v-1.86l-1.71,2.32-1.39.22-1.67-.62.44-.85-.83-.49H207.3v-1.3h-2.06l-1.7-.9-1.4.49.33-1.41-2.81.27-1.16,2-2.69-.94-2.05,1.38-2.69-.43-.57-1.16-1.65-.48-2.18.23-.51,1.78-1.05-.27-.54,2L183.5,358l.52,3.38-.69.88.31,2.22-1.28.27-.53,2.26.62.6-1.47,1-1.58-.51,1,2-.77.28-.89,3.6L180,376.6h-1.4l-.15,2.56-1.69,1.5.85,1.55,2,1.18-.37,3.61h.94l-1.14,3.38-1.61.42.11,1.24,2.27,2.12L178.37,396l-.29,1,.6.56-3.7.81-1.7,2.65-5.25,2.5-.82,2.41-1.07.48.24,4-4.39.9-.13-.64-4-.06.82,2.65,1.5,1.47-2.47,2.2.51,2.59,2.53-.26.5,1.32-2.19,2.73-2.76-1-1-4.71-4,1.68-1.09,2.42.52.49-.8.79-1.47-1-.91.39-.6-2.07h-1.56l.17.72-2.23,1,.16.9-1.91-1.32-.77,2.1-1,.21-.71-1.24.9-1.35-.94-1.09,1-1.85-.71-.83.89-2.33-.15-2-1.25-.43L137.15,417l-.94.39-3-3.23,1.21-1.44-2.12-3.9-.66.4-.63-.82h-1.16l-1.52,1.76-3.62-.38-.67.77-1.06-.38.41-1.31-.6-.27-2,2.26-1.34-1.45-2.5,1.11-2.3-1,.49-4.32-1.52-.17-.44,1.41-2.27.55-.19,1.36-4.1,2.84-.31,1.5,1.45.43-.26.78,1.68,1-2.94.93-2.62,4.1,1.46,1.51-.93.82,1.73-.39-.6,2.78h-.61l-1.56,4.07,1.06,2.22-.07,2.6-.79-.94-3.13,1.72-8.94.19v-2.41l-1.12-.28-4,2.32-3.85-2L81,433.53l.64-1.77-.93-.51L79,432.43v2l-.7.48-.83-2.43-.12.93-1.4-.8-1.56.35-1.08-1,.24-3-2.95-1.6-2.28.74-.11,1.43-5.7-.27-.23,1.19H56.48v-3.75l-1-2.12-.62-13.11,2.2-2.56-1.13-2.13-.42-5.9-2-3,.22-1.16-1.16-.35-1-2.34,3.35-9.36-1.08-2.2L51,380.06l-.64-4.51-2.76-1.6L35.91,339.83l-5.49-22.71-.26-4.89-2.46-3.29L28,298.79l-2.09-1.45-.92-6.12.27-5.62h1l.58,1.47,3.31.13,2.12,2.08L35,288.19l4.11.09.56-.65,4.17,2L45,291.17l-.5,1.34,1.11.15,2-1.35-1.4-2.24.17-.93,3.32-2.49,2.56,1.64,1.16-.28,1.43-3,3.55,2,.48,3,1.46.18,8.14-1.6,1-2.24,2.08.39,1.05-1.14,3.35-.86.94,1.52-.26,1,1.59.63,1.5-1,.5,1.46,4,4.45,1.25.33,1.15-1.36.79,1.4,4.64-.71-.25.59.71.4-.13-1.09h.64v.78l1.63-.81L96,288.81l3.35-3.75,3.76-3.26,2.27-.83,1.52-2.23,2,.53,2.11-1.7,1.74.45-.91,6.63,3.62-.43-.2-1,2.54-2.38,1.84-.66,1.54.45.82-.5.07-1.24,1,.2-.3-2.59h2.26l.36-.92-.58-.48-1.59.58-1.51-1.43-.17-3.25L118,265.86l.19-.69,1.4.33,2.76-2.15-.92-1.76,3.87-.14,6.53-3.13,1.57.88-.29.74,1.34,2,1.68.86,2.48-.43,1.76.62,3.22-4.35,6.31-6.45-.1-2.12,1.47-2.79.85-.52,1.36,1.44,1.22-2.69,2.59,1.46.35-.76,1,.76,1-.67,1.32.37.71-1,3.42-1.31,1-2,2.39.09-.16.86h1.1l1.08-.61-.12-.83h1.17l.23-1.09,1.21.52.19,2.89,3.27,1.3-.5.9,1.2,1.34-.24,1.11,1.51,2.46-3.4-.3.13,1.27,1.24.73v2.17L173,256.71l-.32,1.31,1.77,2.4,1.42,1.06.95-.48,2.72,1.28,1.77-.31-.23.65,1.27,1.26L184,262.4h1.54l.11-2.06H187l.13-1.46,2.52,1.62,1.15-.63.05-1.36.75,1.21,2.05.55.44-.67-1.54-.62-.55-2,.67-1.26-.46-1.2-1.54-2.19-.54.14,3.57-2.48-.68.48-1.45-.94L190.43,246l-2.12-.67-.69.51-.75-.78.56-2.49-1.68-2.78-1.78-.2-1.48,1.34-1-.78-.77.92-2.1-.68-.15-.87-2.68,1-.19-2.16-1.1-.19.12-1.15,1.41-.16.58-2.71,2.05-1.4-.44-2.12.52-1.25,1,.65,1.83-3.15-.77-3.31.61-1-1.65-.35,2.43-1.34,3.24-8.28,5.13-3.65.75-1.61-.55-5.46-1.07-1.69.43-.92-.94-5.22.67-.47-.43-2.22,1-5.93-1-6.77,1.17-2.83,1.83-.26.44-4,1.55-.79.93-2,2.7-2.38.49-3.91,1.4-.08.62-.91,1.48.5,1.68-.63,1.29-1.5,2.65-1.22,1.16,1.21,4.83.85-.69-.82,2-.71-.21-1.86L217,157l.84-2.1,1.21.44,1.71-1.1,1.73.39Zm-53.09,91.69-1.05-.26.64-.93,1.45-.06Z"/><path id="BY-MA" class="cls-2" d="M459.43,249.18l2.09-.51,1.22,1.11,1-1.55.88.31.26-1.15L466,248l1.55-2.35-.21-1.73,1.45-.37.42-2.31,3.22.26-.85-2.77.91-1.72,3.62-1.36v1.46l3.15,1.17,2.08,2.23,1.55-.93L487,240l3.29-.8,1.9-1.74,2.14,1.43,1.31-1.81-.33-.6.9-.42.83.68-1.26,1.78,2,2-.82,1.12,3.33,1.67.17-.73,1.55.15,1.66-1.4L502.56,245h2.71l.89-.47-1.73-2.82.14-1.51,3.4,1.08v-1.16l1.94-.65-2.1-1-.92-1.81,2.43.15,1.41,1.92,1.85-3.08-1.85-2,.53-1.65,2.88-.54.19.86-.91,1h-.93l.11,1,3-1,1.85,2.57-.1,2.14,1.66-.11,1.06-2.38-.79-1.13.86-.64,2.43,1.88.68-.61,1.26,1.3.94-.45,1-5.17,2,1-1.15,2.52.56,1.7L525,238.36l-1.32,4.06,5.4,1.41,2.31-3.69,3.15.28-.46-1.88.69-1.34.69,1.1h1L537,242l1.41,1.15.57,2.7,2-1.43.36,2.28,1.39-.08-.66.9,1.92.44-1-1.26.13-1.45h2.79l-2.71-.95,3.24-2.62-1.24-.63,1.48-3.27,1-.67.7.39.66-1.37L548,234.45l-1.46-.13-.58-.89,1.42-.9,1.56.24,2.58-1.61.72.49,2.81-1-1.08-2.9.6-1.08,2-.65,2.23.85.31.76h2.64l.47,2.28L565,229l3.12,1,1.9-.95-.17-2.17,1.1-.54-.1-1.72,1.83-1.45,1.44,2.89,1.89-.27.78,1,1.94-.33,1.29,3.27,2.58-2.76.51-1.62,2.29-.37.53-1,2.83-1.28-1.16-2.2,1.81-.28,1.09,1.16,2.47-.69h0l2.18.54.29,3.85.84.45.31,2.21,1.32,1.6-1.3,2.9,3.57,1.57,1.57,3.44-2.64,2.49,2.54.88-.77,4,.41,4.4,1.51-.24,1.81,1.2,1.31-1.47.54,3.22,2-.24-.24,1.19-1.46-.42-.58,1.12,4.08.41,3,3.47,1.42-.18.43.75-.76,1.82,2.65,1.2h1.84l.72,1.81,4.66.48,2.06-1.1-.23.86,1.76,2,.06,1.86,3.58-1.25.67,1.26,1-.89,2.11-.3-.55,3.26-1,1.16,2.47.16,2.63-2.15,1.14,1.46,1.24-.9.74,1.25,1-.89,1.39.5-1.13,1.69,1,2-.35,2.1L641.27,279l.8,1.42,1.65.48.11,3.14-2.8,2,.21,2.25-.68.24-1.3,3.92.17,2-2.34.86.9.79.51-.34.06.92-.65,1.07-1.46.17-.68,1.57,1,.37-.24.72-2.43.25,1.11,1.4-.75,3.27.59.43.56-1.61.72.58.25-.78,1-.08.34.83.89-.21,5.61,3.33.55-1.35,1.58-.41,1.71.68,2.79-2.46,4.3.67-.28-.9,2.89.34,1.16-1.38,2.06-.52,1.6,2.16,1.79.18.33.87.65-.77h1.68l1.37,4,2.11.16.46-.89,1.72-.4.23.75L672,309.91l3.72-.15,1.6,1.56.72,3.35,1,.61,1.94-1.56,2.36.15,2.41-1.2.2,2.07,2.1.9.56,1,.16,2.51-3.39,2.24-1.94-.28-1.06.78v1.27l.36,2.3.89.49v-2.48l1.4,1.73-1.55,3.91,2.37,3.86,1.55.88-.49,2.23,2.78.48,3,2.16-.79,1.35,4.56.57.17,4.29,1.67.35,1.41-3.61.54,1.18,2.46,1.43-2,.53-.26,1.24,6,1.18.84-.77,1.47.25-1.47,2.09,1.08,3-1.64.19-.06,1.49.74,1.23,1.24-.24.62,1.39-1.43-.86-1.43.21.25,1.16-1.33,1.45,1.94,4.68-3.61.67L702.38,362l-1.47,1-1.07,2.25L697.26,362l.2,3-1.47.07L694.88,368,692,366.66l-1.46,1-.19-1.69-2.66.48.14.72,1.85.59-.1,1.1-4.82,9.24-1.14.34-1.51,2.38-2-.42-2.06.61-1.37,1.5.3,1.64-.84,1.74L674,388l-4.36.08-.81,1.61.34,1.91-3.75-1.06-1,2.41-5.66,1.41-5.64-1.63-.13-1.12-1.67.85-.31,1-4.15.24-1.5-.63.54-2.06-.85-.5-1.87-.76-1.12.93-2.81-.44-2.41-3.67-.68-4.42-1.32-.45L633,379.58l-1.09.53-7.54-4.38-3.59,4.46-2.73.28-.48-1-2,0-.5-.64-7.36-.94,1,4.43-1.45.79-.13,1.84-2.37,1.7.14,1.77h.94l1.49,2-.65,1.56-2,.2h-1.5l-1-2.26-5.68-.12v-.88l-.42.61-1.1-.57-.55.72L593,386.08l-6.44.58-1.09-2,1.61-1.54-.15-2-1.36-.38-.61-2-2.47.49-.11-2.9-1.93-1.21.64-2.31-.6-.78-.89.53-1.09-1.14-1.43,1L576,370.59l2.07-2,.9-2-.36-.7-6.81.55-.42-.91-3,.61-1.53.51.32,1.38-1.33,1.17-5.13-.72-.66.9-2.54.23,0,1.76-3,.36-1.92-1.84,1-2.15-7-1.36.64-1.42-1.38-.74,1.45-2.67-1.23-.68-.31,2.11-1.63,2.49-2.67-.27-.93,2.57-1.8-.3.2,1-1.07,1.34-3.41-1.06-2.26,1.79-.21,2-3.39-.53-1.29,1.3-3.55.75-.09-1.25-2,2.66-1.48-.42-1.42.85-.56-.57-1.86,1-1.1-.93-2.12-6.89-1.87-1.18.16-1-1-1.19L501.14,363l.12,1.34-1.15,2-3.48-.51.39-1.5,1-.51-.3-1-1.43-1.06-1,.49.67.89-2.14.9-.81-3.92-3.43,1.69-3.64,3.67.06,5.09,1.44,1.73.26,1.34-.74.21,2.11,5.69-3.55,1.28,2.09,1-1.07.81.26,1.2.83-.18-1.55,1.5.26,1.34,1.25.26-4.07,2.13-1.08-.81-2.08.55-.85-1.94-.71.06v1.08l-1-.2-.25.9,1,2.44-1.9,1.29,1.64,3.33,2.2-.78.86,1.88-3.07,3.87,1,.54.55,2.24,1,.8,4,1.75-1.51,1.7L484,409l-4.09,1.31-.62-1.15-.6-.35-.16.72L477,408.2l-2.16-.27-2.45.75-.51-.62-2.65.24-.75-.58-3.19,3.49-3.52,1.58-.81-1.07h-1.3l.12-1.58L458.5,410l-.63,1.5-.09-.81L456,410l-5.44-.55-1.17-1.79-2.79-.16-1.89-1.15-1.5.83-4.36,6.91,1,4.33-1.7.89-.33-.53L428.22,420l.41,3-5.87,8.2-1.64-.29-1.62,2L416,431.82l-.64,3.26h1l.25,1.28L418,436l.1,2h-3.89v1l-2.32,2.61-2.63-1.35-1.86,1.4-3.49-1.33-2,1.18-1.51-.22-.79,1.07-3-.73-1.94.71-.66-1.1-2.1,2-1-.71h0l.39-.33-1.58-2.09L387,438.33l-3.63-1,.08-2.09.34-1.86,3.76-2.56,1.94-4.68-1.58-3.52-.89-.36.12-1.41,3.47-.92-.28-.9,1.35-1.74-.87-3.07-.66-.17-2-4.32,1-2.56.68-.59,1,.73,1.74-2,2.14,1.55,1.72.15,1.51-3-2.23-2.56-.14-3.15-.75-.73,1-2.17-1.17-3.84,1.17-1.26-1.12-.54-.86-2.31-1.15.55,1.26-2-1.47-2-6,1.63-1.31-.27-.06-.8.9-.13-2.18-1,.46,1.82-2.45.76-.49-1.43.49-.83-2.6.72,1.73-1,.94-2.59-.29-1-2.62-1-1.86,3-1.47-1.94-1.38.14-.35,1.43-1-.18-.49-1.39L370,381l-.48-2.43-1.28.3-3.92-2.3.41-1.87-1.69-1.17-.71-3.34,2.15.75,2.22-1.43.59,1,3.51,1.22,7.17.64,2.48-.15v-1.93l6.39-.2,1.35-.65-.07-5-2.31-2.76-3.3-1.29-.25-1.37.71-2.83,1.49.29.07-1,1.62-.92V348l-2.38-2.19-2.71-.87h1l.39-1.25,1.29-.26,2.24,1.33,1-1.79,1.22.22,2.77-3.55.58.86.89-.7v-1.91l.78.31,1.14,2.54.77-1.31,3.07-.26.14-1.35-1.27.33-.85-1.25.57,1.8-4.21-1.07,2.73-2.52,4.06.2.27-2.75,2.59.11-.75-1.19.71-3.09,6.64,4.09,5,.2-.29-2.16,3-1.09,1.19,3,3,.3,2.64,3.48.11,1.86,3.52.59,0,1,.72.22-1.22-5.61,1.53-.35-1.66-.6-.09-.94,3.51-1.69.41,1,5.45.55.89-1.59-1.28-1.06.19-2.56-.86-.67.59-1.4,1.67.84.87-1.34-.55-2.87.45-2.47,1.78.18.14,1.63,1.79-.66,1.79,3,1.49-.37.74-1.54,2.85-.63L449,319l3.35-1,1-1.72-.19-2.8.68-1.78h1.54l1.88,2.88,1.79-.48-.3-3.55,1,.18,1.44-1.12-3-1,.63-2.13,6.2.47,1.18-.67.3-1.92-2.15-.42-.59-1.21-2.3.45-.7-2.51-3.54.94-.91-.64,2.11-.91,2.69-3.44-2.59,1.51-1.38-1,.06-.68,1.67-.22.7-1.12-2-.83,1.93-4-1.85-1.12.18-3.43-2-1.58,1.39-1.6-.41-1.88-2.42-2.39,1-1.73,3.87-2.12h2.63l-.86-1.24,1.67-14.45-1-1.11,1.8-1.56.4-1.79-.7-.33,1.1-.66-1.3-.42.26-.84-.93.11-.07-1.27h-2.38Z"/><path id="BY-VI" class="cls-2" d="M367.11.32h.55L367.91,4l3,.7L374.27,8v3.46l1.55.36,1-1.06.65,2.4,2,1.77,2.09-.54,2.63.45.7-2.72-1-2.12.24-1.45.73-.27,2.8,1.61-.3,1.27,3.41-2.35,4.53.07.18-.8,1.37-.42,5,2.1L403.58,9l2.86.36,0,1.07L405.2,12,404,11.69l-.55,1.51,1.49,2,.08,1.67,3,2.59.34,3.75,2.48,3.91.44-.53,1.28.53,3.15-.58,3,2.3,1-4.26,4.07-.75.85-.79,1.38.73v-2.2l4.53-.21.63-1.84,5.41-1,1.82,2.38,1.65-1.58,1.69.21,4.54,5.1,2.82-1.14,2.18.94,1.41-.4,3.79,2.72,2.43-.41,2.43.77,2.12,1.71-1.71.83-.26,1.06,2.52.71,1.47,2.32L463.25,35l-1.34-.06-.15.81-2.43.33,2.28,3.68h-1.52l-1.08,2,.18,4.51-2,2.81.49,3-.94,1.81L457.1,55l2.77.5,3.86,2.77.47,1.77L466,61.51l2.49.43L473,57.8l.62-3.23L476,51.9l1.19.51,2.9-2.07,2.77.1,2.71-1.52,1.22,1.63-.15,1.18,1,.49,1.78-.47,2.85-3.17-.11-1.7.76.34,2-3.3-.73-1.28,2-1.55,3.93,1.36,1.79-.77V40.14l1.81-.13,3.78,1.62,1.32,1.82.87-.43,2.09,2.07h2l.76-2.39h1.83l.09-2.07-.67-1,.5-.61,1,2.17,2-.63,1.48.41,1.08-.82,2.5,1,.24-.72.68,4.86,3.75-.45,2.09,3.12,2.43-.73.82,1.08L540,47.6l.34,1.25,2,1.41-1.64,1.46,2.48,4.15,3.93.13,3.56,2.86,1.52,3.65L551.3,64l.2,1.72,2.21.19-1.08,1.86,1.27.09-.22,2.74,1.16.12.74-2.77,2.5-.42,2,7.19-.43.8,1,1.13H564V75.4l1.42-.13.42-2,1.35-.55-1-1.25,2.08-.24,3.29,2.4L573,72.32l.17,4.68,1.49,5.82-2.94,1.28-.18.88,1.3.85-.13,1,1.2-.1,1.09,1.9L572,91.15l-1.72.26,1.07,2.18-.54,2.19,2.27,5.8-1,2.88-1.62.35L568.35,108l-2,1.06-1.27,1.8-.59,1.22.2,4.89,4.61,1.16v1.76l1.67.7,1.2,6.29,2.77,1.21.8,2.85,1.2.22-.93,3.06,1.76.35-.61,2.76.59,1.17-1,2.69,1.11,3,.07,4.84-.79.67-.49-.76-3.25-.87-2.16,2.25,2.69,2.22,1.49,2.91-2,.63.14,2.11-2.58.05v1.47l-3.51-.25-2.64,1.31v1.74l.6.13.5,2.25-1.52,2,.61,1.45-1.82.44-3.46,9,6.67,2.7,3.13,3.41,2,.41,3.14,2.42,1.7,3,1.52-1.2v3.43l-.83,1.24.39,1.9,2.53-.35,4.88,1.7,1.66-1.44,1.24,1,3.72-.35,1.25,2,.59,3.23-2.76,4.71L588.48,207l-.84,1.85.17,2.47L585,212.78l.35,1.74-1,1.31,1.39,1.89,2.15.31,2,1.95,1.16.29,1.71-.8.19,1.24h0l-2.47.69-1.09-1.16-1.81.28,1.16,2.2L585.92,224l-.53,1-2.29.37-.51,1.62L580,229.78l-1.29-3.27-1.94.33-.78-1-1.89.27-1.44-2.89-1.83,1.45.1,1.72-1.1.54.17,2.17-1.9.95-3.1-1-2.81.87-.47-2.28h-2.64l-.31-.76-2.27-.83-2,.65-.6,1.08,1.08,2.9-2.81,1-.72-.49-2.58,1.61-1.56-.24-1.42.9.58.89,1.46.13,1.07,1.64-.66,1.37-.7-.39-1,.67-1.5,3.28,1.24.63-3.24,2.62,2.71.95h-2.79l-.13,1.45,1,1.26-1.92-.44.66-.9-1.39.08-.36-2.28-2,1.43-.57-2.7L537,242l-.57-3.66h-1l-.69-1.1-.69,1.34.46,1.88-3.15-.28L529,243.83l-5.4-1.41,1.32-4.06,2.83-2.47-.56-1.7,1.15-2.52-2-1-1,5.17-.94.45-1.26-1.3-.68.61-2.43-1.88-.86.64.79,1.13-1,2.35-1.66.11.1-2.14-1.85-2.57-3,1-.11-1h.93l.91-1-.19-.86-2.88.54-.53,1.65,1.85,2-1.85,3.08-1.41-1.92-2.43-.15.92,1.81,2.1,1L508,240v1.16l-3.4-1.08-.14,1.51,1.73,2.82-.89.47h-2.71l1.16-3.63-1.66,1.4-1.55-.15-.17.73L497,241.68l.82-1.12-2-2,1.26-1.78-.83-.68-.9.42.33.6-1.31,1.81-2.14-1.43-1.9,1.74L487,240l-4.24-.48-1.55.93-2.08-2.23L476,237.07v-1.46L472.46,237l-.91,1.72.85,2.77-3.22-.26-.42,2.31-1.45.37.21,1.73L466,248l-1.12-.57-.26,1.15-.88-.31-1,1.55-1.22-1.11-2.09.51h0l-2.3,1.2L454.91,249l1.56-2.16-.59-1,.37-1.05.85,1.44,1.24-1.49v-3.37l1.18-1.35,1.25-.21-2.66-.71-1.48-2.65.67-1.58-1.58-.27-.24-1.7,4.08.08.76-.27.7-1.82,1.59.44.36-.53-1.81-2.39.18-2.82,1.13-.29L461,223l.21-1.17-.73.26-.66-.83,3.62-4.71.1-1.36-.86-1.05,1.7-3.73-.26-3,2.32-1.9-2-4-2.83.69.17,1.57-1.11.35-.62,2.17-2.64-.56,1.22-1.83L456,207.17l-.6-1.28-1.21-.17-2,2.11-2.08-.52-1.06.63-.41-.91-1.77-.1-.33-3.58-.82-.71,1.44-1.42-1.7-.83L446,199l-3,.34-.9,1-2.88-.37-1.4-1.09-5.14,2.93-.51.84.4,2.29-1.16,1.22-1.22-.41-.22-1.06-.78.25-2.44-1.56-2.79-.12-.82-1.12-2.67,1,1.15,1.38V206l-.3,1-1.5.64-3.6.4-1.06-.34,0-1.08-2.86-.7.44.62-3.67.94-2.54-.62.2-1-1-1.21,1-1.1v-1.87l-3.49-6-1.79.35-.6-1.28-1.1-.16L399,196l-8.73-.09-.77,6.68-1.19,3.88-1.78,3.09h-1.5l-3.5-5-1.84-.67-.7-2.49-1.47.81-.63-2.24-.59.47.69,1-.32,1.31-1-1.57.24-2.58-2.92-2-1-1.53-1.42-.33-4.34,2.08.23-.92-1,1.39.79,1.84-2.31.67-.93,1.52-.52-1.09-1.12-.05-4,2.21L357,205.5l-2.07.81-2-3.42-3.21.42-2.49-1.45.81-2-1.51-1.17-2.69,3-.73.12-.25-.81-2.66,1.64-1.46-.06-.58-2.31-1.68-1.12.71-2.52L334.21,194l0-8.57-3.27-1.52-1.59-1.58-1.32.6-6-.3,1.45-5.3-2-.79-2.3,1.08-.4-4.06-2.28-1.09L316,171.2l-1.49.16-.52-.84-1.52,1-3.79-2.33L307,165.77l-2-.55.84-4.53-2.2-.82-.15-1.54L303,158l-.46.66-.73-1.09.3-1.85.72-.45-1.1-2L298,154l-.66-1.72-1.37,1.11L295,152.2l-1.53,2.22-.77-2-2.92,1-1.64-.68-1.63.75.53.81,1.38-.22-.35,1.44h-4.37l-1,1.19-2.5.55-.51-2.76-2.88-2.13L275.21,150l-1.19.82-.83-.4-2,2.84-.92-1,.1-1.22-1.54-.15-1.14.81-.24,1.44,1,1.56h1l.11,1.76-.69.6L267.74,156l-1,1.22-1.83-.88-1.46.52v1.51l-1.65.12-1.1-.41-.89-2.2-1.13.43-2.13-1.84-1.3,1.37-2.64-.52-.34.52,1.68,1.67-3.32,3.12-4.42-2.84-1.45,1.35-2.61-1.92-1.49.59-.62-1.49-1.7-1-4.2-1.12-1,1.61.79.62.66-.39-.14,1.41-1.09.67L231.88,157l-2.22,3.81h0l-1.84-1.09.35-1.28-1.32-3.4-1.39-1.23-1.72-.34h0l.44-2.17,2-3.45.36-3.39,1.53-.27-.19-.71.67-.29-2.9-4.08,2.47-1.65,2.8-.5.71-.57-.69-.58,1.88-.26-.2-1.2,2.4-.63,2.61,1,.47,1.17,1.13-.94,3.53,1.45,1.17-1,.15-1.42,2.65-1.53,1.93,2.13,3.13-1.32,2.76.83,2.38-1.8,1.57.49.31-1.48,1.18.45.66-.91-1.2-.65-.81-2.7,1.3-.9.77.66,1.85-2,.1-3.7,1-1.22,2.4-.72,1.55-1.81,2.5-.88-.23-3.42-2.9-1.83-5.21-.14-4-2.24-.4,1.25-1-.63-1,1.67-.29-1.68-1.07.39.28.75-.82.88-1.55-.09-.15-.82-1.54.89-1.37-1.35L242.19,109l-.75-.83,2-1,.4-1.76h1.92l2.15-2.38h1.69l-.41-2.38L250,100l-1.29-4,1.22.15-1-1.5,1.72-2.52-.78-1.38-1-.2-1.16-3.2L248.91,85l2.83-1.31,2.2-3.62.69.29,1.69-1.4-.07-3.74-.66-1L256.88,72l-.5-3.52-1-.15V65.12L257,62.61l-.35-.6,5.24.44,2,2.49,2.9.6L267.92,63l5.24-2.19.41-2.73L275.25,56,277,50.89l1.77.19,1.91-3.25,3-2.11,1.35.71,1.1-.85,3.63.42.63-2.26,1.49-.77,1.29.4.8-.73,1.33,2,2.41.67,2.94,3.46.34,1.35,2.42,1.21,4.89-1.82,1.31-2,4.88,2.64,8.5,1.28,5.11-.43,1.77-7.9-1.13-5.78,2.12-2.76v-2l6.21-5.71,2.48-.24,2.06-1.08,1.1-2.28-1-1.25.83-.07L344,20.09l-1.66-1.7,3.33-.88,1.36-1.35,2.13.87,2.33-3.53,1.23-4.15L354,8.66l.54-1.4L356,6.52l3.46,1.06.2-1.21,1.76-1.52,1.72.43.25-1.83,3-3.19Z"/><path id="BY-HM" class="cls-1" d="M326.76,306.38l-.74-.2-1-2.45h0l.7-1,.77.25h0Zm22.8-9.15-.72-.07v-1.75l1.26.74Zm10.29-2.89,1.61,2-1.38,1h0l-2.54-3Zm-33.65-9.77,2.46,1.34,1.56-.7-.35,1.3,1.41.88,1.69-.32,1.11-1.16,2.32.37.53-.84,1,.26-.76,3.65L333,291.44l1.37,4.66-1,2.69,3.24,2.37.48-3.37,4.42.21,1.47,1.58-2.21,1.69-.1,1.69-2,.42-2.68-1.9-1,1.37.32,1.53-2.42,1.16-.53-.58.63-1-1.21-.84,1.21-.84-.63-1.32-1.58,1.16-2.11.26-10.16-1-.89.63-.47-1-2.21-.74-.84-2.58-1.74.63v.74l-2-1.21,1.9-1.79h1v-5l1.42-2.9,2.16-2.16,2.37-.84h0Z"/><path id="BY-MI" class="cls-2" d="M229.65,160.74l2.22-3.81,1.48,1.16,1.09-.67.14-1.41-.66.4-.79-.63,1-1.6,4.19,1.12,1.71,1,.62,1.49,1.48-.59,2.61,1.93,1.45-1.35,4.42,2.84,3.33-3.12-1.68-1.67.34-.53,2.64.53,1.29-1.37,2.13,1.84,1.13-.42.89,2.19,1.1.41,1.65-.11v-1.51l1.46-.51,1.82.87,1-1.22,1.24,1.14.69-.6-.11-1.76h-1l-1-1.57.24-1.44,1.14-.81,1.54.15-.1,1.22.92,1,2-2.84.83.4,1.19-.82,1.6,2.33,2.88,2.13.51,2.76,2.5-.55,1-1.19h4.37l.35-1.44-1.37.22-.53-.81,1.63-.76,1.63.68,2.92-1,.77,2L295,152.2l.89,1.22,1.37-1.1L298,154l3.74-.74,1.09,2-.72.45-.3,1.85.73,1.09L303,158l.55.31.15,1.54,2.2.82-.84,4.53,2,.55,1.67,3.42,3.79,2.33,1.53-1,.52.83,1.49-.15.45,1.27,2.28,1.09.39,4.07,2.3-1.09,2,.79-1.45,5.3,6,.29,1.32-.6,1.59,1.58,3.28,1.52V194l3.06,2.71-.7,2.52,1.68,1.12.58,2.3,1.46.06L343,201.1l.25.81.72-.13,2.69-3,1.51,1.17-.81,2,2.5,1.45,3.21-.42,2,3.42,2.08-.81.46-3.08,4-2.21,1.12.05.52,1.1.93-1.53,2.3-.66-.79-1.85,1-1.39-.24.92,4.34-2.08,1.43.33,1,1.53,2.92,1.95-.24,2.58,1,1.57.32-1.31-.69-1L377,200l.63,2.24,1.48-.8.58,2.53,1.84.67,3.51,5.05h1.49l1.78-3.09,1.2-3.88.77-6.68,8.74.09.69-1.41,1.1.15.6,1.29,1.79-.36,3.49,6v1.87l-1,1.11,1,1.21-.2,1,2.54.62,3.67-.94-.44-.62,2.86.7v1.08l1.06.34,3.6-.41,1.5-.64.3-1v-1.46l-1.14-1.39,2.67-1,.83,1.12,2.78.12,2.44,1.56.78-.25.21,1.07,1.23.41,1.16-1.22-.41-2.29.52-.84,5.14-2.93,1.4,1.08,2.88.37.9-1,3-.34-.64,1.32,1.7.83-1.44,1.43.83.71.33,3.57,1.77.1.41.92,1.06-.63,2.08.52,2-2.11,1.2.17.61,1.28L458.6,204l-1.23,1.83,2.64.56.62-2.17,1.11-.34-.16-1.58,2.83-.69,2,4-2.32,1.89.26,3-1.7,3.72.86,1.05-.1,1.36-3.63,4.72.67.82.72-.25-.21,1.17,1.52,2.31-1.13.29-.18,2.82,1.81,2.39-.35.53L461,231l-.69,1.82-.76.27-4.08-.08.24,1.69,1.58.28-.67,1.58,1.48,2.64,2.65.72-1.25.2-1.18,1.35v3.37l-1.24,1.49-.85-1.44-.24,1,.59,1L455,249.06l2.22,1.39,2.3-1.2h0L460,251h2.38l.07,1.27.93-.11-.26.84,1.3.42-1.09.67.69.33-.4,1.79-1.8,1.56,1,1.11-1.67,14.45.86,1.24h-2.63l-3.87,2.12-1,1.73L457,280.8l.41,1.88-1.4,1.6,2,1.58-.18,3.43,1.85,1.13-1.93,4,2,.84-.71,1.11-1.67.23-.06.67,1.38,1,2.59-1.51-2.69,3.45-2.11.91.91.64,3.54-.94.7,2.51,2.3-.45.59,1.21,2.15.41-.29,1.92-1.19.67-6.19-.47-.63,2.13,3,1-1.44,1.12-1-.17.3,3.55-1.79.47-1.88-2.88H454l-.68,1.78.19,2.8-1,1.72-3.34,1-.72,1.7-2.85.64-.74,1.54-1.48.37-1.79-3-1.79.66-.13-1.63-1.78-.19-.46,2.48.55,2.87-.87,1.34-1.67-.84-.59,1.4.86.67-.19,2.56,1.28,1.06-.89,1.59-5.46-.55-.41-1-3.51,1.69.09.94,1.65.6-1.52.35L428,340l-.72-.22v-1l-3.52-.6-.11-1.86L421,332.85l-3-.3-1.19-3-3,1.09.29,2.16-5-.2-6.65-4.1-.71,3.09.75,1.19-2.58-.11-.27,2.75-4.06-.2-2.72,2.52,4.21,1.07-.57-1.8.85,1.25,1.26-.33-.14,1.35-3.06.26-.77,1.31-1.14-2.54-.78-.31v1.91l-.89.71-.58-.87-2.76,3.56-1.27-.31-.94,1.8L384,343.47l-1.28.26-.4,1.25h-1l2.71.88,2.38,2.19v6.5l-1.62.93-.07,1-1.49-.28-.71,2.83.25,1.37,3.29,1.28,2.31,2.76.07,5-1.35.65-6.39.2v1.93l-2.48.15-7.17-.64-3.51-1.22-.59-1L364.72,371l-2.15-.75.71,3.34,1.69,1.17-.41,1.87,3.92,2.3,1.28-.29.48,2.42,2.58-1.09.5,1.39,1,.18.35-1.44L376,380l1.47,1.94,1.85-3,2.62,1,.3,1-.94,2.59-1.73,1,2.6-.72-.49.84.49,1.43,2.45-.76-.46-1.82,2.19,1-.9.14.06.8,1.31.27,6-1.63,1.47,2L393,388.2l1.15-.55L395,390l1.12.54L395,391.8l1.17,3.84-1,2.17.75.74.13,3.15,2.23,2.56-1.51,3-1.72-.15-2.14-1.55-1.74,1.94-1-.72-.68.59-1,2.56,2,4.33.67.17.86,3.06-1.34,1.75.27.89-3.46.93-.12,1.4.89.37,1.59,3.52L387.78,431,384,433.52l-.34,1.86-.07,2.09,3.63,1,2.75,1.91,1.58,2.09-.39.33h0l-2.31,4.2-.11,12.44L382,466.16l-10.47,1.67-.44-2.26-4.61.87-.88-4.44-9.49,1.23-1.82,1,.86,4.62-1.7,1-.08,3.3h-2l-2.08,1.22-6.73-1.84-6,.6-.38-2.3-5.8-3.59-2-.06,1.24-5.58-1.45-.06.1-1.83-1.3.65-.4-1-1.82,1.9-1.9-1.79-.2,1.45-1.51.61-4.1-.65-.25,1.13-4.58-.91-1.53,3.81h-.78v1l-1.61.19,1.85,4.57-.67,1.27-3.23,2.65-.86,1.59-2.17,1.07V478h0l-3.42-.94-.12-2.4-4.64.09-.33-4.12-2,.19-.75-4.44-4.87-.21v-2.9l-.87-.75.75-.06-.07-4.69-1.2-.11-.27-3.37-1.34.08-.87-1.22-.1-2.44h2.08L285,446l-1-.39.46-1.71,3-.94-.85-3.6-2-.92.66-3.19-1.68-4.39-4,5.44-4.53-2.8-.86.12-1.4-2.07-2.35,1-2.7-.28L265,428.63l-.82-6.48-1.06-.4-.12.71-1.89-.07.41,1.14-2-.54-1.74-2.73-.52.62-2.33-.39.38-.34L252.1,417l-2.26,6.13-2.27,1.2-.92-3.46-4.83,7-.11-1.35-4.07-2.34-.61-2.07.36-1.6,5.41-5.43-1.21-.76-.64-1.94-1.85-2-1.64-4.24.38-1.31,1.46-.28.7-1.23,2.86.29-.39-3.77.63-.62-.63-.42,1.2-1.75,3.63,1.12.5-.5-1.2-4.3-2.08-.15-.87-3.85-4.58.07L236.85,388l-.14-2.17-1.31-1.13-1.64.31v-1.6l-1-1.38-2.84-1-.8-2.78,2.81-.74-.46-1.45.93-1.22,1.9-.45.13-2.28,3.08-.11,1.09-7.26-1.41-.23-1.57-5.34h0l.79-.64,1.33.38,2-2.4.86.7,2.5-1.43,4,.52.72-1,4.18-.83-1.76-4.12-.29-8.48-1.08.33-.5-1.47h-.77l-.63,1.35-1.59-1.15,3.43-2.66.1-3.36-4.44-2.19.5-.61-2.83-2.57-.83-2.81-3-2.67.13-1.49-1.3-1.16h-1.83l.8-3.44-4.39-1.27-.25-1.7-3.31-5.63.94-.93-1.3-1.92,1.51-1.25L228,303.78l-1.45.89-1.23-1.22.79-.27-.65-1.53,2.17-.27-1.92-4.46,2.77-.19,1-1.46,1,1.27,2.25-2.35,4.15-1.47-2-3.56,1.74.3,2-.75,2.14-2.73L238,279.53l-3.46,2.76-3.31.76,1.59-4.29-.55-5.88L228.59,274l-1.6,1.57-.75-.33-2.64,1.91-2.5-.93-.26-2-1.49-1.64.33-1.74-1.15-2.27.58-.69-1.23-1.24.44-3.34,1.41-.68v-1.21h-1.48l-1.79,1.17-1.35-.54-1,1,2,1.84-.45,1.27-6.32-3.51-.39-1.38,2.72-3.62.37-2.35.82-.82.66.34-.41,1.27,1.06,1,2.24-.15,1.18-1.91,2.68-1.44,3.44-3.18,1.29,1,1.3-1.18,1.51,1.36.28,1.36.77-.62,3,1.51,1.26-.69,1.5.47,1.63-2.08-.39-.73,1.41-.23-.42-1.16,1.64-2.67.67.13,1.36-3.28,1.09-.08.38-.95.89.57.78-.92,1.65-.25-.28-2.35,2.7-6.18h1.17l-.49-2.29,1.17-.09,1-2.25,2.6.11,3.56-4.62-1.92-1.08,1.27-.61-.4-.67,1.59-3.54-1-1.26.23-2.49-1.31.2.41-1.37-1.2-.52.09-1.78.79-.89-1.05-1.18,3.67,1.5-.07-4.14,2.36.05.31-1.28-2.45-.94L258,200l1-1.86-2.74.68-.36-.83-1.32-.29L253.23,199l-.51-1.3-1.31-.74-.43-3.12-2-3.77.9-3.58-.49-2-3.31-1.38-4.28-7.18-1.54-1.35-2.46.29-1.28,1-1.19-.51-1.42.9.48-1.2-1-3.71,1.08-.88.05-2.1,1.28-.79-6.31-5.81ZM326.2,284.57l2.46,1.34,1.56-.7-.35,1.3,1.41.88,1.69-.32,1.11-1.16,2.32.37.53-.84,1,.26-.76,3.65L333,291.44l1.37,4.66-1,2.69,3.24,2.37.48-3.37,4.42.21,1.47,1.58-2.21,1.69-.1,1.69-2,.42-2.68-1.9-1,1.37.32,1.53-2.42,1.16-.53-.58.63-1-1.21-.84,1.21-.84-.63-1.32-1.58,1.16-2.11.26-10.16-1-.89.63-.47-1-2.21-.74-.84-2.58-1.74.63v.74l-2-1.21,1.9-1.79h1v-5l1.42-2.9,2.16-2.16,2.37-.84h0Zm33.65,9.77,1.61,2-1.38,1h0L357.66,294Zm-10.29,2.89-.72-.07v-1.75l1.26.74Zm-23.17,9.38L325,303.73h0l.7-1,.77.25h0l.53,2.81Z"/></g></g></g></g></svg>
